Coordinates
version=1
nRows=24
nColumns=22
inDegrees=yes

Units are S.I. units (second, meters, Newtons, ...)
If the header above contains a line with 'inDegrees', this indicates whether rotational values are in degrees (yes) or radians (no).

endheader
time	pelvis_tilt	pelvis_list	pelvis_rotation	pelvis_tx	pelvis_ty	pelvis_tz	hip_flexion_r	hip_adduction_r	hip_rotation_r	knee_angle_r	ankle_angle_r	subtalar_angle_r	hip_flexion_l	hip_adduction_l	hip_rotation_l	knee_angle_l	ankle_angle_l	subtalar_angle_l	lumbar_extension	lumbar_bending	lumbar_rotation
      4.60000000	      4.21379559	      4.49893363	    161.86832956	     -0.44239354	      0.83773410	     -0.57348096	    -14.95608262	     -1.00000023	     13.88925366	    -12.31964056	     23.05032107	      2.64231469	     35.85860708	    -18.07373545	     -8.28721253	    -25.57466729	     -1.11984132	      2.49861342	     -1.47454435	      8.42042464	     18.74957213
      4.61000000	      4.18009525	      4.25011570	    161.78890173	     -0.45188090	      0.83736983	     -0.57159178	    -15.14178776	     -1.59571615	     14.19204101	    -12.93659410	     22.45669686	      3.24661953	     36.14061205	    -17.76209789	     -8.29820586	    -26.97059915	     -1.88637896	      2.45143581	     -1.41388458	      8.04199129	     18.83225519
      4.62000000	      4.07689491	      3.96910242	    161.74362584	     -0.46132990	      0.83735719	     -0.56968359	    -15.32115870	     -2.21604311	     14.48093430	    -13.65675355	     21.75843703	      3.89655296	     36.37048237	    -17.38543125	     -8.25811467	    -28.43283978	     -2.32048129	      2.49955296	     -1.44239679	      7.58753256	     18.89225697
      4.63000000	      3.91509891	      3.67001759	    161.73224926	     -0.47071824	      0.83768401	     -0.56776046	    -15.48135848	     -2.84068342	     14.74419233	    -14.48486312	     20.94498918	      4.60597494	     36.52871813	    -16.94840847	     -8.17100270	    -29.91804920	     -2.37739927	      2.61269279	     -1.55232299	      7.07445397	     18.95699494
      4.64000000	      3.72348080	      3.36087552	    161.74749776	     -0.48001581	      0.83831216	     -0.56584985	    -15.59136427	     -3.44715650	     15.01478264	    -15.42504259	     20.01348584	      5.33665232	     36.61079979	    -16.46589652	     -8.07034267	    -31.36293596	     -2.11500463	      2.75518949	     -1.71502499	      6.52214350	     19.01329663
      4.65000000	      3.52595132	      3.07457656	    161.78328653	     -0.48918486	      0.83920184	     -0.56396125	    -15.62694001	     -3.99315387	     15.29094334	    -16.48409051	     18.94291976	      6.11168665	     36.61517864	    -15.97675682	     -7.97129753	    -32.71539227	     -1.61245575	      2.89533982	     -1.91455276	      5.97487388	     19.07751473
      4.66000000	      3.35620935	      2.84604325	    161.82938970	     -0.49819132	      0.84029249	     -0.56210874	    -15.55426066	     -4.43291898	     15.58233593	    -17.66804227	     17.71738583	      6.91392835	     36.55694031	    -15.53151044	     -7.89770234	    -33.93639325	     -0.95448337	      3.00457913	     -2.12541223	      5.48378689	     19.16764798
      4.67000000	      3.24216451	      2.69459583	    161.88864681	     -0.50701967	      0.84150948	     -0.56029016	    -15.34712271	     -4.74036787	     15.86244109	    -18.97485860	     16.32830712	      7.76990916	     36.45556194	    -15.15744123	     -7.85413886	    -34.99471784	     -0.20228606	      3.06417645	     -2.31963640	      5.08268763	     19.25777318
      4.68000000	      3.19949861	      2.64630554	    161.91654417	     -0.51561907	      0.84281186	     -0.55856573	    -14.97163157	     -4.89271397	     16.17668757	    -20.42817434	     14.79027992	      8.60492744	     36.31099897	    -14.91955824	     -7.89916787	    -35.88470239	      0.59627148	      3.06608584	     -2.49215216	      4.80585519	     19.40437136
      4.69000000	      3.23746051	      2.69812631	    161.91338196	     -0.52398261	      0.84414750	     -0.55692310	    -14.41284625	     -4.89211541	     16.51689552	    -22.03001795	     13.11760234	      9.41332849	     36.13158748	    -14.81354977	     -8.01174672	    -36.59524310	      1.42392646	      3.00966238	     -2.62768656	      4.65721024	     19.59647487
      4.70000000	      3.34784316	      2.84110236	    161.86984612	     -0.53210071	      0.84548606	     -0.55538058	    -13.66644305	     -4.74911192	     16.88528775	    -23.79732655	     11.34339240	     10.12597173	     35.92016985	    -14.84278158	     -8.21192711	    -37.14750062	      2.25727487	      2.91061710	     -2.73151874	      4.62491956	     19.82381616
      4.71000000	      3.51930145	      3.03534489	    161.79523651	     -0.53998630	      0.84680440	     -0.55392135	    -12.73545414	     -4.50160202	     17.27568447	    -25.72904114	      9.50927582	     10.77139703	     35.67653855	    -14.95008617	     -8.45690300	    -37.54541228	      3.08456711	      2.77923584	     -2.79864564	      4.66342379	     20.07748642
      4.72000000	      3.73292109	      3.25242325	    161.69398366	     -0.54762959	      0.84809771	     -0.55255623	    -11.62941752	     -4.17814232	     17.67342482	    -27.83065521	      7.65954673	     11.29146175	     35.40027116	    -15.10475035	     -8.74392623	    -37.80771774	      3.88776755	      2.63322967	     -2.83942205	      4.73452953	     20.33935609
      4.73000000	      3.94027827	      3.46140397	    161.55488023	     -0.55500366	      0.84940715	     -0.55134291	    -10.38248708	     -3.81998660	     18.06264369	    -30.11056841	      5.86052720	     11.59620125	     35.05838350	    -15.27792402	     -9.09643283	    -37.96413699	      4.63661282	      2.50927009	     -2.90002449	      4.78253632	     20.62655467
      4.74000000	      4.17911539	      3.63602480	    161.43295302	     -0.56212225	      0.85063962	     -0.55019742	     -8.96370979	     -3.44008757	     18.35113170	    -32.54189020	      4.11113160	     11.82657362	     34.73837624	    -15.41175510	     -9.42122866	    -38.04578725	      5.33623416	      2.36990035	     -2.92354991	      4.79875848	     20.85331035
      4.75000000	      4.40751516	      3.75636059	    161.32144776	     -0.56896820	      0.85184412	     -0.54917177	     -7.41090808	     -3.07829500	     18.51744919	    -35.11018452	      2.45631181	     11.92524526	     34.40709132	    -15.48262803	     -9.72427131	    -38.06932264	      5.96821469	      2.22808991	     -2.94978517	      4.73985644	     21.04134594
      4.76000000	      4.63520771	      3.82022375	    161.24677485	     -0.57554633	      0.85297596	     -0.54821015	     -5.72093819	     -2.75047513	     18.49620528	    -37.78735772	      0.92657434	     11.85420331	     34.10526555	    -15.47401012	     -9.97029500	    -38.06390462	      6.54377010	      2.05188803	     -2.96517624	      4.61368140	     21.15169083
      4.77000000	      4.81801322	      3.80492948	    161.17988856	     -0.58185598	      0.85411707	     -0.54736551	     -3.94110659	     -2.51394447	     18.32185843	    -40.53192620	     -0.42310030	     11.60828614	     33.76440990	    -15.36473434	    -10.18709832	    -38.00133717	      7.03798033	      1.87715528	     -3.00980006	      4.37319481	     21.25326401
      4.78000000	      4.96432435	      3.71014813	    161.14105180	     -0.58791677	      0.85522466	     -0.54655636	     -2.07709474	     -2.39212175	     17.97028454	    -43.30059987	     -1.51289832	     11.22279085	     33.42319465	    -15.14913895	    -10.37240497	    -37.92356514	      7.46326534	      1.69474514	     -3.07387011	      4.03200166	     21.30940884
      4.79000000	      5.08564006	      3.55116934	    161.13280408	     -0.59377514	      0.85632190	     -0.54575638	     -0.14542025	     -2.39243192	     17.44038011	    -46.02441838	     -2.29787667	     10.67914562	     33.06956116	    -14.83541287	    -10.51053128	    -37.79332174	      7.82862984	      1.48613602	     -3.14190213	      3.61420581	     21.32965707
      4.80000000	      5.17539657	      3.32965088	    161.15966752	     -0.59944857	      0.85740076	     -0.54490052	      1.82722082	     -2.53904938	     16.75223954	    -48.65595105	     -2.66631769	     10.03727340	     32.71072409	    -14.43250062	    -10.64629138	    -37.63857650	      8.14468017	      1.27964434	     -3.22399503	      3.13103418	     21.29032546
      4.81000000	      5.24197794	      3.06906681	    161.21736261	     -0.60496264	      0.85850619	     -0.54398000	      3.81522130	     -2.81403266	     15.94032650	    -51.13213644	     -2.61268957	      9.23145231	     32.32770239	    -13.95781451	    -10.75416151	    -37.42284091	      8.40533370	      1.06408196	     -3.31653141	      2.61073829	     21.21842367
      4.82000000	      5.28944810	      2.78413295	    161.31386495	     -0.61033882	      0.85964820	     -0.54293678	      5.79124006	     -3.20553808	     15.02921090	    -53.39827460	     -2.14588753	      8.25671894	     31.92620765	    -13.43170859	    -10.87412564	    -37.15436041	      8.61994431	      0.85749467	     -3.42273967	      2.08347274	     21.08923233
      4.83000000	      5.32636244	      2.50340987	    161.45311404	     -0.61560344	      0.86085917	     -0.54178745	      7.71934819	     -3.66767973	     14.04872229	    -55.39809484	     -1.29417257	      7.01145656	     31.49112700	    -12.87099771	    -10.95286731	    -36.80222282	      8.83142497	      0.64751076	     -3.53859707	      1.57934844	     20.92333793
